<svg fill="none" height="48" viewBox="0 0 48 48" width="48" xmlns="http://www.w3.org/2000/svg" xmlns:xlink="http://www.w3.org/1999/xlink">
  <filter id="a" color-interpolation-filters="sRGB" filterUnits="userSpaceOnUse" height="54" width="48" x="0" y="-3">
    <feFlood flood-opacity="0" result="BackgroundImageFix"/>
    <feBlend in="SourceGraphic" in2="BackgroundImageFix" mode="normal" result="shape"/>
    <feColorMatrix in="SourceAlpha" result="hardAlpha" type="matrix"
                   values="0 0 0 0 0 0 0 0 0 0 0 0 0 0 0 0 0 0 127 0"/>
    <feOffset dy="-3"/>
    <feGaussianBlur stdDeviation="1.5"/>
    <feComposite in2="hardAlpha" k2="-1" k3="1" operator="arithmetic"/>
    <feColorMatrix type="matrix"
                   values="0 0 0 0 0 0 0 0 0 0 0 0 0 0 0 0 0 0 0.1 0"/>
    <feBlend in2="shape" mode="normal" result="effect1_innerShadow_3046_38734"/>
    <feOffset dy="3"/>
    <feGaussianBlur stdDeviation="1.5"/>
    <feComposite in2="hardAlpha" k2="-1" k3="1" operator="arithmetic"/>
    <feColorMatrix type="matrix"
                   values="0 0 0 0 1 0 0 0 0 1 0 0 0 0 1 0 0 0 0.1 0"/>
    <feBlend in2="effect1_innerShadow_3046_38734" mode="normal" result="effect2_innerShadow_3046_38734"/>
    <feMorphology in="SourceAlpha" operator="erode" radius="1" result="effect3_innerShadow_3046_38734"/>
    <feOffset/>
    <feComposite in2="hardAlpha" k2="-1" k3="1" operator="arithmetic"/>
    <feColorMatrix type="matrix"
                   values="0 0 0 0 0.0627451 0 0 0 0 0.0941176 0 0 0 0 0.156863 0 0 0 0.24 0"/>
    <feBlend in2="effect2_innerShadow_3046_38734" mode="normal" result="effect3_innerShadow_3046_38734"/>
  </filter>

  <filter id="b" color-interpolation-filters="sRGB" filterUnits="userSpaceOnUse" height="42" width="36" x="6" y="5.25">
    <feFlood flood-opacity="0" result="BackgroundImageFix"/>
    <feColorMatrix in="SourceAlpha" result="hardAlpha" type="matrix"
                   values="0 0 0 0 0 0 0 0 0 0 0 0 0 0 0 0 0 0 127 0"/>
    <feMorphology in="SourceAlpha" operator="erode" radius="1.5" result="effect1_dropShadow_3046_38734"/>
    <feOffset dy="2.25"/>
    <feGaussianBlur stdDeviation="2.25"/>
    <feComposite in2="hardAlpha" operator="out"/>
    <feColorMatrix type="matrix"
                   values="0 0 0 0 0.141176 0 0 0 0 0.141176 0 0 0 0 0.141176 0 0 0 0.1 0"/>
    <feBlend in2="BackgroundImageFix" mode="normal" result="effect1_dropShadow_3046_38734"/>
    <feBlend in="SourceGraphic" in2="effect1_dropShadow_3046_38734" mode="normal" result="shape"/>
  </filter>

  <linearGradient id="c" gradientUnits="userSpaceOnUse" x1="24" x2="26" y1="0" y2="48">
    <stop offset="0" stop-color="#fff" stop-opacity="0"/>
    <stop offset="1" stop-color="#fff" stop-opacity=".12"/>
  </linearGradient>

  <linearGradient id="d">
    <stop offset="0" stop-color="#fff" stop-opacity=".8"/>
    <stop offset="1" stop-color="#fff" stop-opacity=".5"/>
  </linearGradient>

  <linearGradient id="e" gradientUnits="userSpaceOnUse" x1="23.8964" x2="23.8964" xlink:href="#d" y1="9" y2="39.0001"/>
  <linearGradient id="f" gradientUnits="userSpaceOnUse" x1="23.8964" x2="23.8964" xlink:href="#d" y1="9" y2="24.0001"/>
  <linearGradient id="g" gradientUnits="userSpaceOnUse" x1="23.8964" x2="23.8964" xlink:href="#d" y1="39.0002" y2="24.0002"/>
  <linearGradient id="h" gradientUnits="userSpaceOnUse" x1="24" x2="24" y1="0" y2="48">
    <stop offset="0" stop-color="#fff" stop-opacity=".12"/>
    <stop offset="1" stop-color="#fff" stop-opacity="0"/>
  </linearGradient>

  <clipPath id="i">
    <rect height="48" rx="12" width="48"/>
  </clipPath>

  <!-- Icon block -->
  <g filter="url(#a)">
    <g clip-path="url(#i)">
      <rect fill="#3538cd" height="48" rx="12" width="48"/>
      <path d="M0 0h48v48H0z" fill="url(#c)"/>
      <g filter="url(#b)">
        <path d="M24.0001 9c-8.2844 0-15.0001 6.7158-15.0001 15.0001s6.7157 15 15.0001 15c7.4325 0 13.6024-5.4057 14.7926-12.5h-.1076c-1.1101 4.3131-5.0254 7.5-9.685 7.5-5.5229 0-10.0001-4.4772-10.0001-10 0-5.5229 4.4772-10.0001 10.0001-10.0001 4.6596 0 8.5749 3.187 9.685 7.5h.1076c-1.1902-7.0943-7.3601-12.5-14.7926-12.5z" fill="url(#e)" opacity=".5"/>
        <path d="M9 24.0001c0-8.2843 6.7158-15.0001 15.0001-15.0001 7.4325 0 13.6024 5.4057 14.7926 12.5H28.6849c-1.1101-4.313-5.0253-7.5-9.685-7.5-5.5228 0-10 4.4772-10 10.0001z" fill="url(#f)"/>
        <path d="M9 24.0002c0 8.2843 6.7158 15 15.0001 15 7.4325 0 13.6024-5.4057 14.7926-12.5H28.6849c-1.1101 4.3131-5.0253 7.5-9.685 7.5-5.5228 0-10-4.4771-10-10z" fill="url(#g)"/>
      </g>
    </g>
    <rect height="46" rx="11" stroke="url(#h)" stroke-width="2" width="46" x="1" y="1"/>
  </g>
</svg>
